<?xml version="1.0" standalone="no"?>
<!DOCTYPE svg PUBLIC "-//W3C//DTD SVG 20010904//EN"
 "http://www.w3.org/TR/2001/REC-SVG-20010904/DTD/svg10.dtd">
<svg version="1.0" xmlns="http://www.w3.org/2000/svg"
 width="3353.000000pt" height="3353.000000pt" viewBox="0 0 3353.000000 3353.000000"
 preserveAspectRatio="xMidYMid meet">
<metadata>
Created by potrace 1.14, written by Peter Selinger 2001-2017
</metadata>
<g transform="translate(0.000000,3353.000000) scale(0.100000,-0.100000)"
fill="#000000" stroke="none">
<path d="M16595 32490 c-1220 -82 -2381 -443 -3420 -1063 -1473 -879 -2575
-2217 -3086 -3747 -155 -464 -253 -930 -306 -1450 -14 -138 -18 -262 -17 -590
l0 -415 47 -445 c109 -1042 146 -1593 154 -2307 6 -509 -2 -747 -33 -1068
-150 -1544 -753 -2479 -2244 -3479 -770 -517 -1604 -974 -3925 -2149 -807
-408 -846 -430 -1105 -602 -657 -438 -1218 -1044 -1661 -1797 -113 -191 -317
-602 -404 -813 -314 -760 -497 -1541 -575 -2460 -18 -210 -24 -833 -11 -1075
100 -1813 720 -3493 1778 -4823 244 -306 605 -692 883 -942 1122 -1008 2500
-1682 4115 -2009 505 -102 977 -163 1600 -208 245 -18 1329 -18 1600 0 590 38
1161 100 1634 177 866 141 2386 548 4593 1229 1235 381 2249 706 5113 1641
3179 1037 4257 1378 5270 1666 154 43 312 91 350 106 648 244 1085 901 1085
1633 0 588 -287 1129 -770 1452 -448 299 -1060 400 -1650 272 -41 -9 -1036
-263 -2211 -565 -1174 -301 -2166 -555 -2202 -565 -46 -11 -67 -21 -67 -32 0
-32 99 -260 250 -577 223 -468 277 -610 301 -802 33 -266 -91 -445 -373 -537
-156 -51 -309 -69 -583 -70 -267 -1 -335 6 -510 51 -271 70 -609 259 -823 458
-377 352 -724 1019 -847 1630 -60 297 -75 613 -41 840 51 331 128 658 247
1053 22 74 39 135 37 137 -2 2 -1120 -1284 -2483 -2858 -1364 -1574 -2514
-2896 -2555 -2937 -210 -209 -499 -361 -803 -422 -159 -32 -425 -31 -577 1
-270 57 -476 163 -662 340 -195 185 -304 388 -344 642 -24 152 -16 375 21 534
62 276 205 564 396 800 36 44 1057 1248 2269 2675 1213 1428 2212 2604 2220
2615 14 20 -514 -499 -574 -563 -17 -18 -70 -63 -118 -100 -64 -49 -873 -877
-2992 -3062 -1598 -1647 -2924 -3009 -2948 -3027 -145 -107 -322 -187 -498
-224 -134 -28 -369 -31 -506 -6 -540 99 -946 501 -1040 1032 -24 136 -15 377
19 508 45 168 131 345 231 471 28 34 1326 1381 2885 2992 2292 2370 2838 2939
2861 2984 15 30 53 90 84 134 31 43 56 80 54 81 -2 1 -1237 -1103 -2745 -2454
-1746 -1564 -2771 -2475 -2820 -2508 -143 -93 -265 -146 -437 -189 -140 -35
-396 -44 -547 -20 -650 107 -1102 645 -1075 1281 11 263 87 473 246 676 39 51
844 781 2790 2535 l2735 2464 70 106 c39 58 89 128 113 156 23 27 42 52 42 54
0 2 -64 -47 -142 -109 -79 -62 -782 -622 -1563 -1243 -781 -622 -1455 -1154
-1499 -1183 -170 -115 -388 -202 -591 -237 -126 -22 -398 -14 -508 15 -363 96
-643 335 -788 671 -177 410 -110 876 169 1172 61 64 313 261 642 500 510 370
1123 781 2000 1338 1364 867 1790 1176 2263 1640 734 718 1145 1517 1371 2665
234 1189 242 2890 24 5065 -39 389 -44 783 -14 1030 82 679 323 1238 741 1720
445 513 1100 898 1840 1084 362 90 679 128 1075 128 510 0 958 -72 1414 -229
1070 -367 1847 -1125 2182 -2127 97 -292 125 -436 194 -991 57 -459 86 -636
136 -824 88 -339 192 -534 383 -721 119 -116 225 -188 371 -251 421 -181 1007
-213 1830 -98 253 35 375 65 485 119 285 139 454 400 531 815 16 83 19 150 19
395 0 254 -3 316 -23 450 -225 1530 -1221 3450 -2407 4635 -267 268 -465 434
-817 686 -647 463 -1318 806 -2063 1055 -562 187 -1069 291 -1730 355 -144 14
-864 20 -1030 9z"/>
<path d="M25780 28004 c-157 -11 -432 -38 -560 -55 -142 -19 -424 -66 -447
-74 -7 -2 11 -60 53 -167 181 -455 253 -749 288 -1173 9 -104 25 -303 37 -441
37 -456 42 -1003 11 -1342 l-8 -84 26 5 c14 3 93 21 175 41 838 199 1841 74
2647 -330 404 -203 778 -490 1072 -824 231 -263 355 -442 488 -708 270 -537
390 -979 391 -1442 0 -380 -69 -679 -238 -1019 -328 -658 -954 -1251 -2110
-1998 -261 -169 -472 -300 -1025 -638 -1370 -837 -1920 -1217 -2540 -1753
-172 -149 -536 -511 -669 -667 -491 -575 -809 -1164 -971 -1800 -39 -151 -84
-380 -78 -394 2 -5 1566 614 3475 1374 3826 1523 3514 1392 3993 1679 997 597
1814 1291 2434 2069 778 976 1216 2062 1297 3212 14 209 6 652 -16 855 -128
1174 -627 2270 -1454 3193 -142 159 -456 468 -601 593 -940 808 -2053 1358
-3375 1668 -438 103 -781 159 -1225 202 -155 15 -924 28 -1070 18z"/>
<path d="M24696 22255 c-14 -15 -30 -43 -37 -63 -14 -44 -345 -815 -667 -1557
-473 -1091 -702 -1639 -702 -1683 0 -61 125 -75 638 -70 452 4 449 4 491 71
11 19 35 79 52 133 47 152 79 233 104 262 l23 27 549 3 c301 1 582 -1 623 -5
74 -8 75 -8 97 -48 25 -45 60 -141 98 -267 14 -49 37 -101 50 -117 46 -54 72
-56 610 -56 470 0 492 1 530 20 30 15 41 27 43 47 6 47 -228 589 -716 1663
-532 1172 -730 1585 -781 1628 -38 31 -59 32 -336 18 -145 -8 -250 -5 -547 15
-96 6 -97 6 -122 -21z m587 -1260 c100 -227 236 -618 252 -727 7 -43 5 -47
-21 -65 -26 -16 -53 -18 -299 -18 -313 0 -332 4 -328 67 5 79 314 848 341 848
5 0 30 -47 55 -105z"/>
<path d="M20750 22243 c-30 -2 -170 -11 -310 -20 -212 -15 -399 -18 -1107 -18
-767 0 -854 -2 -868 -16 -15 -15 -13 -59 20 -535 64 -929 66 -1082 24 -2169
-5 -148 -9 -333 -7 -409 3 -135 4 -139 28 -158 39 -29 110 -36 445 -49 491
-18 652 -8 691 42 8 10 5 96 -12 324 -13 171 -27 434 -30 585 l-7 276 32 26
c18 16 50 30 77 34 66 10 1027 -3 1163 -15 178 -17 198 -16 221 4 35 32 42 83
47 341 8 359 -16 503 -84 520 -15 4 -226 -1 -468 -10 -496 -20 -792 -25 -848
-13 -93 20 -137 103 -137 261 0 75 4 100 24 143 42 88 40 88 401 87 212 -1
403 -8 605 -23 414 -30 674 -38 695 -21 20 16 17 45 -25 265 -19 104 -30 201
-35 315 -4 90 -11 173 -17 183 -5 10 -24 27 -41 37 -29 18 -50 20 -227 18
-107 -1 -220 -3 -250 -5z"/>
<path d="M14606 22204 c-18 -18 -19 -33 -12 -279 3 -143 13 -375 20 -515 34
-602 39 -830 26 -1190 -22 -617 13 -839 162 -1017 124 -149 333 -258 603 -312
333 -67 997 -79 1439 -25 365 44 632 130 803 258 142 107 214 251 259 517 12
75 17 231 24 769 4 371 15 812 24 980 8 168 18 413 22 546 l7 241 -23 23 -23
23 -261 -7 c-144 -3 -382 -9 -529 -13 -236 -5 -271 -8 -290 -24 -22 -17 -22
-20 -19 -341 1 -178 7 -474 12 -658 19 -626 23 -1170 11 -1235 -32 -172 -137
-275 -329 -327 -100 -27 -348 -29 -461 -5 -145 32 -245 95 -293 184 -84 154
-91 350 -53 1418 27 751 29 937 12 960 -17 22 58 18 -807 40 -291 8 -306 7
-324 -11z"/>
<path d="M22185 19873 c-201 -26 -637 -109 -697 -134 -48 -19 -54 -57 -24
-146 27 -81 34 -143 16 -143 -6 0 -39 13 -73 29 -201 93 -410 110 -674 52
-463 -101 -764 -360 -877 -754 -93 -321 -15 -734 196 -1049 155 -232 411 -421
692 -513 146 -47 231 -60 396 -59 360 3 603 108 898 388 48 46 76 66 83 59 5
-5 71 -198 147 -428 115 -350 141 -421 163 -437 25 -19 25 -19 195 32 93 29
261 76 374 105 269 70 309 84 333 117 l20 27 -38 108 c-21 59 -103 284 -182
498 -287 770 -540 1566 -679 2130 -15 61 -32 113 -38 117 -11 8 -175 8 -231 1z
m-672 -1005 c106 -51 186 -128 237 -229 128 -257 73 -493 -141 -598 -218 -107
-472 -70 -633 92 -189 188 -206 478 -38 646 91 91 213 132 382 128 110 -2 119
-4 193 -39z"/>
<path d="M29900 15103 c-94 -6 -271 -35 -366 -58 -55 -13 -733 -226 -1509
-473 -775 -246 -2421 -770 -3656 -1163 l-2247 -714 -65 -150 c-441 -1008 -735
-2066 -907 -3265 -66 -462 -116 -980 -95 -980 7 0 9133 2913 9670 3087 202 65
411 165 538 256 454 328 735 841 776 1415 36 505 -133 1006 -468 1388 -394
451 -1035 703 -1671 657z"/>
</g>
</svg>
